<svg width="18" height="16" viewBox="0 0 18 16" fill="none" xmlns="http://www.w3.org/2000/svg">
<path d="M2.25 13.0625C2.25 13.3719 2.50172 13.625 2.8125 13.625H16.875C17.4973 13.625 18 14.1277 18 14.75C18 15.3723 17.4973 15.875 16.875 15.875H2.8125C1.2593 15.875 0 14.6164 0 13.0625V1.25C0 0.628789 0.503789 0.125 1.125 0.125C1.74621 0.125 2.25 0.628789 2.25 1.25V13.0625ZM12.0445 8.79453C11.6051 9.23398 10.8949 9.23398 10.4555 8.79453L8.4375 6.78008L5.29453 9.91953C4.85508 10.359 4.14492 10.359 3.70547 9.91953C3.26531 9.48008 3.26531 8.76992 3.70547 8.33047L7.64297 4.39297C8.08242 3.95352 8.79258 3.95352 9.23203 4.39297L11.25 6.40742L14.9555 2.70547C15.3949 2.26531 16.1051 2.26531 16.5445 2.70547C16.984 3.14492 16.984 3.85508 16.5445 4.29453L12.0445 8.79453Z" fill="#0065FC"/>
</svg>
