<svg width="87" height="87" viewBox="0 0 87 87" fill="none" xmlns="http://www.w3.org/2000/svg">
<path d="M10.875 67.9688C10.875 69.4641 12.0916 70.6875 13.5938 70.6875H81.5625C84.5701 70.6875 87 73.1174 87 76.125C87 79.1326 84.5701 81.5625 81.5625 81.5625H13.5938C6.0866 81.5625 0 75.4793 0 67.9688V10.875C0 7.87248 2.43498 5.4375 5.4375 5.4375C8.44002 5.4375 10.875 7.87248 10.875 10.875V67.9688ZM58.2152 47.3402C56.0912 49.4643 52.6588 49.4643 50.5348 47.3402L40.7812 37.6037L25.5902 52.7777C23.4662 54.9018 20.0338 54.9018 17.9098 52.7777C15.7823 50.6537 15.7823 47.2213 17.9098 45.0973L36.941 26.066C39.065 23.942 42.4975 23.942 44.6215 26.066L54.375 35.8025L72.2848 17.9098C74.4088 15.7823 77.8412 15.7823 79.9652 17.9098C82.0893 20.0338 82.0893 23.4662 79.9652 25.5902L58.2152 47.3402Z" fill="black"/>
</svg>
