<svg width="98" height="87" viewBox="0 0 98 87" fill="none" xmlns="http://www.w3.org/2000/svg">
<g clip-path="url(#clip0_0_187)">
<path d="M56.6051 3.37295C56.9284 1.42649 58.6127 0 60.5864 0C61.8624 0 63.0534 0.598125 63.819 1.6146L66.6943 5.4375H75.5586C77.7193 5.4375 79.812 6.29731 81.3433 7.8266L84.3888 10.875H93.9166C96.1794 10.875 97.9999 12.7017 97.9999 14.9531V19.0312C97.9999 26.5418 91.9089 32.625 84.3888 32.625H72.5982L71.7305 37.8076L52.6749 26.9326L56.6051 3.37295ZM76.2221 10.875C74.7249 10.875 73.4999 12.0916 73.4999 13.5938C73.4999 15.0959 74.7249 16.3125 76.2221 16.3125C77.7193 16.3125 78.9443 15.0959 78.9443 13.5938C78.9443 12.0916 77.7193 10.875 76.2221 10.875ZM70.7777 43.517V81.5625C70.7777 84.5701 68.3447 87 65.3332 87H59.8888C56.8773 87 54.4443 84.5701 54.4443 81.5625V61.9875C50.2079 64.0775 45.7332 65.25 40.8332 65.25C35.9332 65.25 31.3055 64.0775 27.2221 61.9875V81.5625C27.2221 84.5701 24.7891 87 21.7777 87H16.3332C13.3269 87 10.8888 84.5701 10.8888 81.5625V42.4465C5.9939 40.5943 2.15046 36.4482 0.822697 31.1467L0.162525 28.5129C-0.566827 25.5902 1.20687 22.6336 4.12407 21.767C7.04025 21.1893 9.99727 22.9564 10.7272 25.8621L11.3873 28.5129C11.993 30.9258 14.1708 32.4721 16.6684 32.4721H51.6881L70.7777 43.517Z" fill="black"/>
</g>
<defs>
<clipPath id="clip0_0_187">
<rect width="98" height="87" fill="white"/>
</clipPath>
</defs>
</svg>
