<svg width="87" height="87" viewBox="0 0 87 87" fill="none" xmlns="http://www.w3.org/2000/svg">
<g clip-path="url(#clip0_0_197)">
<path d="M32.7353 0.921824C34.0933 -0.318544 36.2 -0.301553 37.558 0.938816C42.3634 5.33958 46.8728 10.0802 51.0862 15.2115C53.0013 12.7648 55.1777 10.0972 57.5281 7.92226C58.9036 6.6649 61.0277 6.6649 62.4031 7.93925C68.4272 13.5464 73.5286 20.9546 77.1152 27.989C80.6496 34.9215 83 42.0069 83 47.0024C83 68.6833 65.6241 87 44 87C22.1321 87 5 68.6663 5 46.9854C5 40.4607 8.09911 32.4918 12.9045 24.6078C17.7621 16.6048 24.6219 8.26209 32.7353 0.921824ZM44.296 70.6883C48.7009 70.6883 52.6009 69.4989 56.2746 67.1201C63.6045 62.1247 65.5719 52.1338 61.167 44.2838C60.3835 42.7545 58.3813 42.6526 57.2496 43.9439L52.8621 48.9224C51.7129 50.2137 49.6411 50.1797 48.5616 48.8374C45.6888 45.2692 40.5527 38.8975 37.6277 35.2783C36.5308 33.919 34.4415 33.902 33.3272 35.2613C27.4424 42.4827 24.4826 47.0364 24.4826 52.1507C24.5 63.7898 33.3098 70.6883 44.296 70.6883Z" fill="black"/>
</g>
<defs>
<clipPath id="clip0_0_197">
<rect width="87" height="87" fill="white"/>
</clipPath>
</defs>
</svg>
