<svg width="33" height="87" viewBox="0 0 33 87" fill="none" xmlns="http://www.w3.org/2000/svg">
<path d="M27.5 76.125H22V38.0625C22 35.0566 19.537 32.625 16.5 32.625H5.5C2.46297 32.625 0 35.0566 0 38.0625C0 41.0684 2.46297 43.3471 5.5 43.3471H11V75.9721H5.5C2.46297 75.9721 0 78.4037 0 81.4096C0 84.4155 2.46297 86.8471 5.5 86.8471H27.5C30.537 86.8471 33 84.4155 33 81.4096C33 78.4037 30.5422 76.125 27.5 76.125ZM16.5 21.75C21.0564 21.75 24.75 18.0984 24.75 13.5938C24.75 9.08913 21.0547 5.43921 16.5 5.43921C11.9453 5.43921 8.25 9.09083 8.25 13.5955C8.25 18.1001 11.9436 21.75 16.5 21.75Z" fill="black"/>
</svg>
