<svg width="54" height="87" viewBox="0 0 54 87" fill="none" xmlns="http://www.w3.org/2000/svg">
<g clip-path="url(#clip0_0_193)">
<path d="M35.1 8.15625C35.1 12.6609 31.4719 16.3125 27 16.3125C22.5282 16.3125 18.9 12.6609 18.9 8.15625C18.9 3.65162 22.5282 0 27 0C31.4719 0 35.1 3.65162 35.1 8.15625ZM25.65 59.8125V81.5625C25.65 84.5701 23.2369 87 20.25 87C17.2632 87 14.85 84.5701 14.85 81.5625V43.6529L10.0289 51.7412C8.49323 54.307 5.17561 55.1396 2.61904 53.5934C0.0624139 52.0471 -0.764562 48.7166 0.771738 46.1338L10.606 29.6684C13.5338 24.7576 18.7988 21.75 24.4857 21.75H29.5144C35.2013 21.75 40.4663 24.7576 43.4025 29.6684L53.2238 46.1338C54.7594 48.7166 53.9325 52.0471 51.3844 53.5934C48.8194 55.1396 45.5119 54.307 43.9763 51.7412L39.15 43.6529V81.5625C39.15 84.5701 36.7369 87 33.75 87C30.7632 87 28.35 84.5701 28.35 81.5625V59.8125H25.65Z" fill="black"/>
</g>
<defs>
<clipPath id="clip0_0_193">
<rect width="54" height="87" fill="white"/>
</clipPath>
</defs>
</svg>
