<svg width="98" height="87" viewBox="0 0 98 87" fill="none" xmlns="http://www.w3.org/2000/svg">
<g clip-path="url(#clip0_0_191)">
<path d="M64.8569 25.5393L89.3059 29.1417C91.3306 29.4305 93.0319 30.8579 93.6785 32.812C94.325 34.7831 93.7976 36.9241 92.3344 38.3854L74.6059 55.7514L78.7913 80.662C79.1316 82.701 78.2979 84.7741 76.5965 85.9805C74.9122 87.187 72.6833 87.3399 70.8628 86.3713L49.017 74.7317L27.1882 86.3713C25.3507 87.3399 23.1219 87.187 21.4375 85.9805C19.7531 84.7741 18.9024 82.701 19.2597 80.662L23.4451 55.7514L5.71326 38.3854C4.24837 36.9241 3.72774 34.7831 4.37087 32.812C5.01229 30.8579 6.70857 29.4305 8.74854 29.1417L33.1771 25.5393L44.134 3.05355C45.0358 1.18169 46.9413 -0.0065918 49.017 -0.0065918C51.1097 -0.0065918 53.0153 1.18169 53.917 3.05355L64.8569 25.5393Z" fill="black"/>
</g>
<defs>
<clipPath id="clip0_0_191">
<rect width="98" height="87" fill="white"/>
</clipPath>
</defs>
</svg>
