<svg width="23" height="22" viewBox="0 0 23 22" fill="none" xmlns="http://www.w3.org/2000/svg">
<path d="M13.2429 2.0625C13.2429 3.2016 12.3395 4.125 11.2261 4.125C10.1127 4.125 9.20931 3.2016 9.20931 2.0625C9.20931 0.923398 10.1127 0 11.2261 0C12.3395 0 13.2429 0.923398 13.2429 2.0625ZM10.89 15.125V20.625C10.89 21.3855 10.2891 22 9.54544 22C8.80175 22 8.20091 21.3855 8.20091 20.625V11.0387L7.0005 13.084C6.61815 13.7328 5.7921 13.9434 5.15555 13.5523C4.51899 13.1613 4.31308 12.3191 4.6956 11.666L7.1442 7.50234C7.87318 6.26055 9.1841 5.5 10.6001 5.5H11.8521C13.2681 5.5 14.579 6.26055 15.3101 7.50234L17.7555 11.666C18.1378 12.3191 17.9319 13.1613 17.2975 13.5523C16.6588 13.9434 15.8353 13.7328 15.453 13.084L14.2513 11.0387V20.625C14.2513 21.3855 13.6505 22 12.9068 22C12.1631 22 11.5622 21.3855 11.5622 20.625V15.125H10.89Z" fill="#0065FC"/>
</svg>
