<svg width="6" height="16" viewBox="0 0 6 16" fill="none" xmlns="http://www.w3.org/2000/svg">
<path d="M4.66996 13.1694H3.83663V6.60688C3.83663 6.08862 3.46345 5.66938 3.0033 5.66938H1.33663C0.876473 5.66938 0.503296 6.08862 0.503296 6.60688C0.503296 7.12515 0.876473 7.51802 1.33663 7.51802H2.16996V13.143H1.33663C0.876473 13.143 0.503296 13.5623 0.503296 14.0805C0.503296 14.5988 0.876473 15.018 1.33663 15.018H4.66996C5.13012 15.018 5.5033 14.5988 5.5033 14.0805C5.5033 13.5623 5.1309 13.1694 4.66996 13.1694ZM3.0033 3.79438C3.69366 3.79438 4.2533 3.16479 4.2533 2.38813C4.2533 1.61147 3.6934 0.982178 3.0033 0.982178C2.31319 0.982178 1.7533 1.61177 1.7533 2.38843C1.7533 3.16509 2.31293 3.79438 3.0033 3.79438Z" fill="#0065FC"/>
</svg>
