<svg width="22" height="22" viewBox="0 0 22 22" fill="none" xmlns="http://www.w3.org/2000/svg">
<path d="M21.352 3.68485C20.0187 3.0943 18.6842 2.86963 17.3505 2.86963C13.1166 2.86927 8.88305 5.13236 4.64915 5.13236C3.58732 5.13236 2.52618 4.99008 1.46435 4.63437C1.34507 4.59444 1.22545 4.57557 1.10858 4.57557C0.516992 4.57557 0 5.05904 0 5.73016V17.2456C0 17.704 0.248527 18.1385 0.647615 18.3149C1.981 18.9058 3.31542 19.1305 4.64915 19.1305C8.88305 19.1305 13.117 16.8674 17.3509 16.8674C18.4127 16.8674 19.4738 17.0097 20.5356 17.3654C20.6549 17.4053 20.7745 17.4242 20.8914 17.4242C21.483 17.4242 22 16.9407 22 16.2696V4.75451C21.9997 4.29572 21.7511 3.86161 21.352 3.68485V3.68485ZM1.64997 6.50727C2.34159 6.69021 3.06345 6.78204 3.80594 6.8314C3.60382 7.89816 2.71558 8.70213 1.64997 8.70213V6.50727ZM1.64997 16.8518V15.1175C2.83142 15.1175 3.78738 16.1074 3.83997 17.3462C3.06551 17.2805 2.34159 17.1171 1.64997 16.8518V16.8518ZM10.9998 14.4845C9.48082 14.4845 8.24987 12.9241 8.24987 11.0001C8.24987 9.07562 9.48116 7.51559 10.9998 7.51559C12.5185 7.51559 13.7498 9.07562 13.7498 11.0001C13.7498 12.9249 12.5181 14.4845 10.9998 14.4845ZM20.3497 15.4929C19.7474 15.3335 19.1222 15.2442 18.4825 15.1865C18.6842 14.2399 19.4278 13.5212 20.3497 13.3978V15.4929ZM20.3497 6.92287C19.2879 6.78095 18.4639 5.84486 18.4312 4.68881C19.1029 4.76758 19.7406 4.91494 20.3497 5.14833V6.92287Z" fill="#0065FC"/>
</svg>
