<svg width="17" height="16" viewBox="0 0 17 16" fill="none" xmlns="http://www.w3.org/2000/svg">
<path d="M11.1595 4.69712L15.6502 5.35962C16.022 5.41275 16.3345 5.67525 16.4533 6.03462C16.572 6.39712 16.4752 6.79087 16.2064 7.05962L12.9502 10.2534L13.7189 14.8346C13.7814 15.2096 13.6283 15.5909 13.3158 15.8127C13.0064 16.0346 12.597 16.0627 12.2627 15.8846L8.25016 13.744L4.24078 15.8846C3.90328 16.0627 3.49391 16.0346 3.18453 15.8127C2.87516 15.5909 2.71891 15.2096 2.78453 14.8346L3.55328 10.2534L0.296408 7.05962C0.0273453 6.79087 -0.0682797 6.39712 0.0498452 6.03462C0.167658 5.67525 0.47922 5.41275 0.853907 5.35962L5.34078 4.69712L7.35328 0.561808C7.51891 0.217558 7.86891 -0.000976562 8.25016 -0.000976562C8.63453 -0.000976562 8.98453 0.217558 9.15016 0.561808L11.1595 4.69712Z" fill="#0065FC"/>
</svg>
